<?xml version="1.0" encoding="UTF-8" standalone="no"?>
<svg
   viewBox="0 0 34 34"
   version="1.1"
   id="svg3"
   sodipodi:docname="happy-think.svg"
   inkscape:version="1.3 (0e150ed, 2023-07-21)"
   width="34"
   height="34"
   xmlns:inkscape="http://www.inkscape.org/namespaces/inkscape"
   xmlns:sodipodi="http://sodipodi.sourceforge.net/DTD/sodipodi-0.dtd"
   xmlns="http://www.w3.org/2000/svg"
   xmlns:svg="http://www.w3.org/2000/svg">
  <defs
     id="defs3" />
  <sodipodi:namedview
     id="namedview3"
     pagecolor="#ffffff"
     bordercolor="#111111"
     borderopacity="1"
     inkscape:showpageshadow="0"
     inkscape:pageopacity="0"
     inkscape:pagecheckerboard="1"
     inkscape:deskcolor="#d1d1d1"
     inkscape:zoom="12.58152"
     inkscape:cx="12.876028"
     inkscape:cy="19.790932"
     inkscape:window-width="1312"
     inkscape:window-height="449"
     inkscape:window-x="163"
     inkscape:window-y="69"
     inkscape:window-maximized="0"
     inkscape:current-layer="svg3"
     showguides="true" />
  <path
     id="circle1"
     style="opacity:0.7;fill:#f9f9f9"
     d="M 17,0 A 17,17 0 0 0 0,17 17,17 0 0 0 17,34 17,17 0 0 0 34,17 17,17 0 0 0 17,0 Z m -5.021484,4.0039063 c 2.410044,-0.061623 4.063109,0.798625 4.162109,0.8515625 0.433,0.2309991 0.607625,0.7472981 0.390625,1.1542969 -0.216,0.4049985 -0.738875,0.5463587 -1.171875,0.3183593 C 15.236375,6.265125 12.526069,4.8960045 9.080078,6.375 8.8230792,6.4839997 8.5348744,6.4609841 8.296875,6.3339844 8.1328756,6.2459847 7.9922966,6.1085932 7.9042969,5.9335938 7.6882975,5.505595 7.8658296,5.0072651 8.2988281,4.8222657 9.63195,4.2500797 10.88304,4.0319163 11.978516,4.0039063 Z M 23.931641,8 c 2.594639,0.020444 4.328547,1.0800472 4.427734,1.1425781 0.415,0.2599994 0.5555,0.7867347 0.3125,1.1777349 -0.242,0.389997 -0.776409,0.495281 -1.191406,0.238281 -0.08466,-0.05079 -1.409621,-0.8330772 -3.423828,-0.8554692 A 2.125,2.6559999 0 0 1 25.5,12.21875 2.125,2.6559999 0 0 1 23.375,14.875 2.125,2.6559999 0 0 1 21.25,12.21875 2.125,2.6559999 0 0 1 22.417969,9.8535158 c -0.38684,0.07577 -0.788101,0.1805612 -1.203125,0.3261722 -0.266,0.091 -0.553206,0.0463 -0.783203,-0.0957 -0.156,-0.098 -0.287282,-0.2428282 -0.363282,-0.4238272 -0.186997,-0.4419993 0.02375,-0.9269855 0.46875,-1.0839849 1.232153,-0.4319988 2.379238,-0.5841718 3.394532,-0.5761719 z m -11.8125,0.5 a 2.125,2.6559999 0 0 1 2.125,2.65625 2.125,2.6559999 0 0 1 -2.125,2.65625 2.125,2.6559999 0 0 1 -2.125,-2.65625 2.125,2.6559999 0 0 1 2.125,-2.65625 z m 9.08789,10.06836 c 0.10066,-0.0021 0.200517,0.01322 0.296875,0.04297 0.177422,0.05479 0.341068,0.159409 0.460938,0.316406 0.293252,0.37889 0.216422,0.901607 -0.173828,1.166016 -3.838824,2.609336 -7.549626,1.508567 -7.707032,1.460938 -0.469423,-0.143987 -0.737689,-0.616876 -0.603515,-1.056641 0.134905,-0.437905 0.624035,-0.677649 1.091797,-0.535156 0.133132,0.03784 3.052192,0.864369 6.154296,-1.244141 0.145366,-0.09823 0.312703,-0.146871 0.480469,-0.15039 z" />
  <path
     id="path2"
     style="opacity:0.65;fill:#f9f9f9"
     d="m 9.777344,17.830078 c -0.798376,0.0022 -1.2688437,0.66047 -0.9414065,1.667969 0.6039995,1.853998 0.2070145,3.37497 -0.8339844,4.292969 -1.9387929,1.707626 -3.0531038,3.030627 -3.0585937,5.132812 A 17,17 0 0 0 17,34 17,17 0 0 0 17.660156,33.95313 c 0.01893,-0.05598 0.03441,-0.113522 0.04492,-0.173828 0.173,-0.971999 -0.625,-1.166016 -0.625,-1.166016 0,0 1.042828,-0.208954 1.173828,-1.376953 0.123,-1.100999 -0.861328,-1.363281 -0.861328,-1.363281 0,0 0.969625,-0.400064 1.015625,-1.539063 0.038,-0.958999 -0.996094,-1.427734 -0.996094,-1.427734 0,0 5.038642,-1.221797 5.556641,-1.341797 0.515999,-0.12 1.319359,-0.61436 1.068359,-1.693359 -0.248999,-1.079999 -1.202313,-1.116953 -1.695312,-1.001953 -0.494,0.115 -6.744393,1.564407 -8.900391,2.066406 l -1.439453,0.333984 c -0.539999,0.127 -0.785296,-0.109719 -0.404297,-0.511718 0.508,-0.536 0.834266,-1.129283 0.947266,-2.113282 0.119,-1.034999 -0.232594,-2.312594 -0.433594,-2.808593 -0.374,-0.920999 -1.005376,-1.648438 -1.734375,-1.898438 -0.213187,-0.07313 -0.415369,-0.10794 -0.599609,-0.107422 z" />
</svg>
